<svg width="1733" height="806" viewBox="0 0 1733 806" fill="none" xmlns="http://www.w3.org/2000/svg">
<path d="M1291 427L1304 413M1304 427L1291 413" stroke="#A35BA4" stroke-opacity="0.4" stroke-width="4"/>
<path d="M1586 16L1599 2M1599 16L1586 2" stroke="#A35BA4" stroke-opacity="0.8" stroke-width="4"/>
<path d="M1718 266L1731 252M1731 266L1718 252" stroke="#A35BA4" stroke-opacity="0.4" stroke-width="4"/>
<path d="M1059 755L1072 741M1072 755L1059 741" stroke="#A35BA4" stroke-opacity="0.8" stroke-width="4"/>
<path d="M9 321L22 307M22 321L9 307" stroke="#A35BA4" stroke-opacity="0.4" stroke-width="4"/>
<path d="M404 162L417 148M417 162L404 148" stroke="#A35BA4" stroke-opacity="0.8" stroke-width="4"/>
<path d="M2 719L15 705M15 719L2 705" stroke="#A35BA4" stroke-opacity="0.4" stroke-width="4"/>
<circle cx="1439" cy="419" r="7" stroke="#A35BA4" stroke-opacity="0.8" stroke-width="4"/>
<circle cx="1217" cy="153" r="7" stroke="#A35BA4" stroke-opacity="0.4" stroke-width="4"/>
<circle cx="411" cy="746" r="7" stroke="#A35BA4" stroke-opacity="0.8" stroke-width="4"/>
<circle cx="219" cy="484" r="7" stroke="#A35BA4" stroke-opacity="0.4" stroke-width="4"/>
<circle cx="1577" cy="620" r="7" stroke="#A35BA4" stroke-opacity="0.8" stroke-width="4"/>
<circle cx="164" cy="164" r="7" stroke="#A35BA4" stroke-opacity="0.4" stroke-width="4"/>
<circle cx="1709" cy="797" r="7" stroke="#A35BA4" stroke-opacity="0.8" stroke-width="4"/>
</svg>
